<svg xmlns="http://www.w3.org/2000/svg" xml:space="preserve" width="60" height="55" viewBox="0 0 15.875 14.552"><defs><path id="a" d="M-45.672 544.55h1111.936v461.989H-45.672z"/></defs><path d="M51.977 139.34c-2.176-1.636-4.196-3.746-5.459-5.702-.704-1.091-1.063-2.656-.845-3.687.168-.797.46-1.321 1.081-1.937.613-.608 1.064-.864 1.859-1.054.623-.149.867-.153 1.494-.024 1.063.22 2.147 1.002 2.67 1.928.213.377.214.383.214 1.347 0 1.593-.074 2.686-.179 2.686-.064 0-.09.103-.092.354 0 .44-.033.49-.372.581-.367.099-.638.393-.685.742-.034.254-.016.297.21.51.372.352 1 .473 1.529.296.39-.13.36-.18-.085-.145-.37.029-.458.012-.663-.127-.322-.22-.344-.452-.066-.686a.683.683 0 0 1 .505-.178c.162 0 .307-.022.323-.05.016-.028.05-.331.077-.674.039-.515.03-.623-.049-.623-.076 0-.104-.205-.14-1.02a51.814 51.814 0 0 1-.044-1.828c0-.781.007-.818.214-1.185.303-.537 1.147-1.356 1.642-1.591.448-.214 1.28-.432 1.66-.436.808-.008 1.913.428 2.566 1.012 1.421 1.27 1.667 2.991.733 5.13-.228.52-1.636 2.534-1.778 2.542-.027.002-.057-.604-.068-1.346l-.018-1.349-.458.38-.458.38-.224-.26a2 2 0 0 0-1.12-.613l-.266-.036v1.794c0 2.052-.053 1.913.638 1.654.236-.088.498-.26.71-.466l.335-.326.319.288.319.29-.49.543c-.977 1.084-2.215 2.162-3.714 3.234-.371.266-.685.484-.696.484-.011 0-.519-.375-1.129-.833zm3.439-4.864c0-1.673-.008-1.788-.118-1.755-.065.02-.209.056-.32.082-.457.105-.975.614-1.15 1.128-.216.633-.053 1.27.455 1.783.242.245.802.537 1.049.548.065.003.084-.398.084-1.786zm-.994.263c-.118-.048-.105-.46.02-.564.166-.138.435.02.435.257 0 .291-.185.416-.455.307z" style="fill:#000;stroke-width:.0673596" transform="translate(-45.182 -126.228)"/></svg>