<svg xmlns="http://www.w3.org/2000/svg" xml:space="preserve" width="263.903" height="77.952" viewBox="0 0 69.824 20.625" fill="#c7daff"><defs><path id="b" d="M-196.595 63.079h528.808v310.136h-528.808z"/><path id="a" d="M-45.672 544.55h1111.936v461.989H-45.672z"/></defs><g style="font-size:96px;line-height:1.25;letter-spacing:0;white-space:pre;shape-inside:url(#a)"><g aria-label="Anaïs" style="shape-inside:url(#b)" transform="matrix(.26458 0 0 .26458 52.041 -19.814)"><path d="m-196.692 151.878 26.592-67.2h13.824l26.4 67.2h-16.512l-12.672-34.08q-.768-2.016-1.536-4.32-.768-2.304-1.536-4.704-.768-2.496-1.536-4.8-.672-2.4-1.152-4.416l2.88-.096q-.576 2.4-1.344 4.704-.672 2.304-1.44 4.608-.672 2.208-1.536 4.512-.864 2.208-1.632 4.608l-12.672 33.984zm12.672-12.864 5.088-12.288h30.912l4.992 12.288zM-43.38 152.742q-6.432 0-11.52-3.36-4.992-3.456-7.968-9.408-2.976-6.048-2.976-13.632 0-7.776 2.976-13.728t8.16-9.312q5.184-3.456 11.808-3.456 3.648 0 6.624 1.056 3.072 1.056 5.376 2.976 2.304 1.824 3.936 4.32 1.632 2.4 2.4 5.184l-3.168-.384v-12.096h15.264v50.976H-28.02V139.59l3.456-.096q-.768 2.688-2.496 5.088t-4.224 4.224q-2.496 1.824-5.568 2.88-3.072 1.056-6.528 1.056zm4.224-12.96q3.552 0 6.144-1.632t4.032-4.608q1.44-3.072 1.44-7.2t-1.44-7.104q-1.44-3.072-4.032-4.704-2.592-1.728-6.144-1.728-3.456 0-6.048 1.728-2.496 1.632-3.936 4.704-1.44 2.976-1.44 7.104t1.44 7.2q1.44 2.976 3.936 4.608 2.592 1.632 6.048 1.632zM.396 151.878v-50.976h15.456v50.976zm19.296-60.672q-4.032 0-6.24-2.112-2.112-2.112-2.112-6.048 0-3.648 2.208-5.856 2.304-2.304 6.144-2.304 3.936 0 6.048 2.112 2.208 2.112 2.208 6.048 0 3.648-2.208 5.952-2.208 2.208-6.048 2.208zm-23.136 0q-4.032 0-6.144-2.112-2.208-2.112-2.208-6.048 0-3.648 2.304-5.856 2.208-2.304 6.048-2.304 4.032 0 6.144 2.112 2.208 2.112 2.208 6.048 0 3.648-2.304 5.952-2.208 2.208-6.048 2.208zM45.996 152.838q-7.488 0-13.248-2.4-5.664-2.4-9.024-6.432l9.312-8.064q2.976 2.976 6.72 4.416 3.744 1.344 7.104 1.344 1.344 0 2.4-.288 1.056-.288 1.728-.768.768-.576 1.152-1.248.384-.768.384-1.728 0-1.92-1.728-2.976-.864-.48-2.88-1.152-2.016-.672-5.184-1.536-4.512-1.152-7.872-2.688-3.264-1.632-5.376-3.744-1.92-2.016-2.976-4.416-1.056-2.496-1.056-5.568 0-3.552 1.632-6.432 1.728-2.88 4.512-4.992 2.88-2.112 6.528-3.168 3.744-1.152 7.68-1.152 4.224 0 8.064.96t7.104 2.688q3.36 1.728 5.952 4.128l-8.064 9.024q-1.728-1.632-3.936-2.88-2.112-1.344-4.416-2.112-2.304-.768-4.224-.768-1.44 0-2.592.288-1.056.192-1.824.768-.768.48-1.152 1.248-.384.672-.384 1.632 0 .96.48 1.824.576.864 1.536 1.44.96.576 3.072 1.344 2.112.672 5.76 1.728 4.512 1.248 7.776 2.784 3.264 1.536 5.184 3.648 1.536 1.632 2.304 3.84.768 2.112.768 4.608 0 4.896-2.784 8.736-2.688 3.744-7.488 5.952-4.8 2.112-10.944 2.112z" style="font-weight:700;font-family:Lexend;-inkscape-font-specification:&quot;Lexend Bold&quot;"/></g></g><path d="M.462 158.036c-2.176-1.635-4.196-3.745-5.46-5.7-.704-1.092-1.063-2.657-.845-3.688.169-.797.461-1.321 1.082-1.937.613-.608 1.064-.864 1.858-1.054.624-.149.867-.153 1.494-.024 1.064.22 2.148 1.002 2.67 1.928.213.377.214.383.214 1.347 0 1.593-.073 2.686-.178 2.686-.065 0-.091.103-.092.354-.001.44-.034.49-.373.581-.366.099-.638.393-.684.742-.034.254-.017.298.209.51.373.352 1 .473 1.53.296.389-.13.36-.18-.085-.145-.371.029-.459.012-.663-.127-.322-.22-.345-.452-.066-.686a.683.683 0 0 1 .505-.178c.161 0 .307-.022.323-.05.016-.028.05-.331.076-.674.04-.515.03-.623-.048-.623-.077 0-.105-.205-.14-1.02a51.814 51.814 0 0 1-.044-1.828c0-.781.007-.818.213-1.185.303-.537 1.148-1.356 1.642-1.591.448-.214 1.281-.432 1.66-.436.809-.008 1.913.428 2.567 1.012 1.42 1.27 1.667 2.992.732 5.13-.227.52-1.635 2.534-1.778 2.542-.027.002-.057-.604-.067-1.346l-.018-1.349-.458.38-.459.38-.223-.26a2 2 0 0 0-1.121-.613l-.265-.036v1.794c0 2.052-.054 1.913.638 1.654.236-.088.497-.26.709-.466l.335-.326.32.289.318.288-.49.544c-.977 1.084-2.215 2.162-3.713 3.234-.372.266-.685.484-.696.484-.012 0-.52-.375-1.13-.833zm3.438-4.863c0-1.673-.007-1.788-.118-1.755-.064.02-.208.056-.32.082-.456.105-.975.614-1.15 1.128-.215.633-.052 1.27.455 1.783.242.245.803.537 1.05.548.064.003.083-.398.083-1.786zm-.993.263c-.119-.048-.105-.46.019-.564.167-.138.435.02.435.257 0 .291-.184.416-.454.307z" style="fill:#c7daff;stroke-width:.0673596" transform="translate(23.055 -138.498)"/></svg>
