<svg xmlns="http://www.w3.org/2000/svg" xml:space="preserve" width="247.968" height="75.072" viewBox="0 0 65.608 19.863"><defs><path id="a" d="M-45.672 544.55h1111.936v461.989H-45.672z"/></defs><g aria-label="Anaïs" style="font-size:96px;line-height:1.25;letter-spacing:0;white-space:pre;shape-inside:url(#a)" transform="matrix(.26458 0 0 .26458 11.449 -147.965)"><path d="m-43.272 633.35 26.016-67.2h10.56l25.824 67.2H8.088l-15.36-40.511q-.288-.672-1.152-3.264-.768-2.592-1.824-5.76l-1.92-5.76q-.864-2.688-1.152-3.456l2.208-.096q-.576 1.632-1.44 4.128-.768 2.496-1.728 5.28-.864 2.784-1.728 5.28-.864 2.4-1.44 4.032l-15.264 40.128zm11.52-16.703 3.84-9.984H2.616l4.416 9.984zM104.952 634.31q-6.24 0-11.424-3.455-5.088-3.456-8.16-9.408t-3.072-13.44q0-7.584 3.072-13.44 3.168-5.952 8.448-9.312 5.376-3.36 12-3.36 3.936 0 7.2 1.152 3.264 1.152 5.664 3.264 2.496 2.016 4.032 4.704 1.632 2.688 2.016 5.76l-2.208-.768V582.95h9.984v50.4h-9.984v-12l2.304-.672q-.576 2.592-2.4 5.088-1.728 2.4-4.512 4.32-2.688 1.92-6.048 3.072-3.264 1.152-6.912 1.152zm2.592-9.12q4.512 0 7.968-2.207 3.456-2.208 5.376-6.048 2.016-3.936 2.016-8.928 0-4.896-2.016-8.736-1.92-3.84-5.376-6.048-3.456-2.208-7.968-2.208-4.416 0-7.872 2.208-3.36 2.208-5.376 6.048-1.92 3.84-1.92 8.736 0 4.992 1.92 8.928 2.016 3.84 5.376 6.048 3.456 2.208 7.872 2.208zM146.136 633.35v-50.4h9.888v50.4zm14.4-61.631q-3.168 0-4.896-1.632-1.728-1.632-1.728-4.608 0-2.784 1.728-4.512 1.824-1.728 4.896-1.728 3.168 0 4.896 1.632 1.728 1.632 1.728 4.608 0 2.784-1.824 4.512-1.728 1.728-4.8 1.728zm-19.2 0q-3.168 0-4.896-1.632-1.728-1.632-1.728-4.608 0-2.784 1.824-4.512 1.728-1.728 4.8-1.728 3.168 0 4.896 1.632 1.728 1.632 1.728 4.608 0 2.784-1.824 4.512-1.728 1.728-4.8 1.728zM186.456 634.31q-6.336 0-11.424-2.207-5.088-2.208-8.448-6.528l6.72-5.76q2.88 3.36 6.24 4.896 3.456 1.44 7.776 1.44 1.728 0 3.168-.384 1.536-.48 2.592-1.344 1.152-.864 1.728-2.016.576-1.248.576-2.688 0-2.496-1.824-4.032-.96-.672-3.072-1.44-2.016-.864-5.28-1.728-5.568-1.44-9.12-3.264-3.552-1.824-5.472-4.128-1.44-1.824-2.112-3.936-.672-2.208-.672-4.8 0-3.168 1.344-5.76 1.44-2.688 3.84-4.608 2.496-2.016 5.76-3.072 3.36-1.056 7.104-1.056 3.552 0 7.008.96 3.552.96 6.528 2.784 2.976 1.824 4.992 4.32l-5.664 6.24q-1.824-1.824-4.032-3.168-2.112-1.44-4.32-2.208-2.208-.768-4.032-.768-2.016 0-3.648.384-1.632.384-2.784 1.152-1.056.768-1.632 1.92-.576 1.152-.576 2.592.096 1.248.576 2.4.576 1.056 1.536 1.824 1.056.768 3.168 1.632 2.112.864 5.376 1.632 4.8 1.248 7.872 2.784 3.168 1.44 4.992 3.36 1.92 1.824 2.688 4.224.768 2.4.768 5.376 0 4.32-2.496 7.776-2.4 3.36-6.528 5.28-4.128 1.92-9.216 1.92z" style="font-family:Lexend;-inkscape-font-specification:Lexend"/></g><path d="M51.123 137.46c-2.176-1.635-4.196-3.744-5.46-5.7-.704-1.091-1.063-2.656-.845-3.688.169-.797.461-1.32 1.082-1.936.613-.608 1.064-.864 1.858-1.054.624-.15.867-.153 1.494-.024 1.064.22 2.148 1.002 2.67 1.927.213.377.214.384.214 1.348 0 1.592-.073 2.686-.178 2.686-.065 0-.091.102-.092.353-.001.44-.034.49-.373.582-.366.098-.638.392-.685.742-.034.253-.016.297.21.51.373.351 1 .473 1.53.296.389-.13.36-.18-.085-.146-.371.03-.459.012-.663-.127-.322-.219-.345-.451-.066-.686a.683.683 0 0 1 .505-.177c.161 0 .307-.023.323-.05.016-.028.05-.332.076-.674.04-.516.03-.623-.048-.623-.077 0-.105-.205-.14-1.021a51.814 51.814 0 0 1-.044-1.828c0-.78.006-.818.213-1.185.303-.537 1.148-1.355 1.642-1.59.448-.214 1.281-.433 1.66-.436.809-.008 1.913.428 2.567 1.012 1.42 1.27 1.667 2.991.732 5.13-.227.52-1.635 2.533-1.778 2.542-.027.002-.057-.604-.067-1.346l-.018-1.35-.458.381-.459.38-.223-.26a2 2 0 0 0-1.121-.614l-.265-.035v1.794c0 2.052-.054 1.913.638 1.654.236-.088.497-.26.709-.466l.335-.327.32.289.318.289-.49.544c-.977 1.083-2.215 2.162-3.713 3.234-.372.266-.685.484-.696.484-.012 0-.52-.375-1.13-.833zm3.438-4.863c0-1.673-.007-1.787-.118-1.754-.064.019-.208.056-.32.081-.456.106-.975.614-1.15 1.129-.215.632-.052 1.27.455 1.783.242.245.803.537 1.05.547.064.003.083-.397.083-1.786zm-.993.263c-.119-.048-.105-.46.019-.563.167-.139.435.02.435.256 0 .292-.184.416-.454.307z" style="fill:#000;stroke-width:.0673596" transform="translate(-28.986 -118.685)"/></svg>