{
  "accessors": [
    {
      "bufferView": 2,
      "componentType": 5126,
      "count": 21100,
      "max": [
        14.308488845825195,
        29.58327865600586,
        12.303277015686035
      ],
      "min": [
        -10.928489685058594,
        -15.849695205688477,
        -10.319724082946777
      ],
      "type": "VEC3"
    },
    {
      "bufferView": 2,
      "byteOffset": 253200,
      "componentType": 5126,
      "count": 21100,
      "max": [
        0.9999616146087646,
        0.9998253583908081,
        1.0
      ],
      "min": [
        -0.9999614953994751,
        -0.9998284578323364,
        -1.0
      ],
      "type": "VEC3"
    },
    {
      "bufferView": 1,
      "componentType": 5126,
      "count": 21100,
      "max": [
        0.963412344455719,
        0.9686121344566345
      ],
      "min": [
        0.004158000461757183,
        0.004158000461757183
      ],
      "type": "VEC2"
    },
    {
      "bufferView": 0,
      "componentType": 5125,
      "count": 100896,
      "type": "SCALAR"
    }
  ],
  "asset": {
    "extras": {
      "author": "sneakyraccoon (https://sketchfab.com/sneakyraccoon)",
      "license": "CC-BY-4.0 (http://creativecommons.org/licenses/by/4.0/)",
      "source": "https://sketchfab.com/3d-models/otter-c02c4565e0be460686895c314637d53f",
      "title": "otter"
    },
    "generator": "Sketchfab-14.26.0",
    "version": "2.0"
  },
  "bufferViews": [
    {
      "buffer": 0,
      "byteLength": 403584,
      "name": "floatBufferViews",
      "target": 34963
    },
    {
      "buffer": 0,
      "byteLength": 168800,
      "byteOffset": 403584,
      "byteStride": 8,
      "name": "floatBufferViews",
      "target": 34962
    },
    {
      "buffer": 0,
      "byteLength": 506400,
      "byteOffset": 572384,
      "byteStride": 12,
      "name": "floatBufferViews",
      "target": 34962
    }
  ],
  "buffers": [
    {
      "byteLength": 1078784,
      "uri": "scene.bin"
    }
  ],
  "images": [
    {
      "uri": "textures/Default_OBJ_baseColor.png"
    }
  ],
  "materials": [
    {
      "doubleSided": true,
      "name": "Default_OBJ",
      "pbrMetallicRoughness": {
        "baseColorTexture": {
          "index": 0
        },
        "metallicFactor": 0.0,
        "roughnessFactor": 0.8174258598085082
      }
    }
  ],
  "meshes": [
    {
      "name": "norm_Default OBJ_0",
      "primitives": [
        {
          "attributes": {
            "NORMAL": 1,
            "POSITION": 0,
            "TEXCOORD_0": 2
          },
          "indices": 3,
          "material": 0,
          "mode": 4
        }
      ]
    }
  ],
  "nodes": [
    {
      "children": [
        1
      ],
      "matrix": [
        1.0,
        0.0,
        0.0,
        0.0,
        0.0,
        2.220446049250313e-16,
        -1.0,
        0.0,
        0.0,
        1.0,
        2.220446049250313e-16,
        0.0,
        0.0,
        0.0,
        0.0,
        1.0
      ],
      "name": "Sketchfab_model"
    },
    {
      "children": [
        2
      ],
      "matrix": [
        1.0,
        0.0,
        0.0,
        0.0,
        0.0,
        0.0,
        1.0,
        0.0,
        0.0,
        -1.0,
        0.0,
        0.0,
        0.0,
        0.0,
        0.0,
        1.0
      ],
      "name": "90c4a3ca91d54e6ba97df0a8cdd2a081.fbx"
    },
    {
      "children": [
        3
      ],
      "name": "RootNode"
    },
    {
      "children": [
        4
      ],
      "matrix": [
        100.0,
        0.0,
        0.0,
        0.0,
        0.0,
        -1.629206793918314e-05,
        -99.99999999999868,
        0.0,
        0.0,
        99.99999999999868,
        -1.629206793918314e-05,
        0.0,
        2.1175823681357508e-20,
        9.5367431640625e-05,
        2.384185791015625e-05,
        1.0
      ],
      "name": "norm"
    },
    {
      "mesh": 0,
      "name": "norm_Default OBJ_0"
    }
  ],
  "samplers": [
    {
      "magFilter": 9729,
      "minFilter": 9987,
      "wrapS": 10497,
      "wrapT": 10497
    }
  ],
  "scene": 0,
  "scenes": [
    {
      "name": "Sketchfab_Scene",
      "nodes": [
        0
      ]
    }
  ],
  "textures": [
    {
      "sampler": 0,
      "source": 0
    }
  ]
}
